<?xml version="1.0" encoding="utf-8" ?><svg xmlns="http://www.w3.org/2000/svg" xmlns:xlink="http://www.w3.org/1999/xlink" width="1024" height="1024" viewBox="0 0 1024 1024"><path fill="#F8F9F4" d="M0 0L1024 0L1024 1024L0 1024L0 0Z"/><path fill="#010003" d="M491.806 263.729C525.413 262.909 561.435 263.671 595.261 263.602L788.766 263.714C783.592 297.357 775.904 332.533 770.285 366.274C767.143 366.194 763.2 366.401 759.996 366.486C768.561 418.016 746.853 474.361 697.706 496.35C686.743 502.095 673.083 503.156 663.845 511.827C648.899 525.855 649.415 547.703 648.915 566.257C640.401 566.147 631.886 566.14 623.372 566.237C623.63 573.882 625.956 588.014 627.296 595.768C647.002 610.104 651.332 626.326 645.171 649.626C664.709 662.09 687.327 659.325 707.011 647.984C733.717 632.597 743.695 603.643 750.803 575.309C760.693 577.921 773.505 580.439 783.77 582.83C776.268 612.775 772.112 637.144 760.109 666.965C745.695 703.986 725.601 733.984 687.839 750.653C635.827 773.613 576.722 759.257 554.59 703.49C538.099 661.938 547.184 613.808 552.95 570.785C557.237 539.398 562.167 508.102 567.739 476.917C574.02 442.233 583.159 398.552 596.536 365.748L585.411 365.761C576.679 365.813 567.947 365.808 559.215 365.745C548.466 380.235 544.588 405.747 543.344 423.7C533.953 424.1 523.13 423.806 513.657 423.728L470.202 423.509C467.799 443.256 464.394 463.186 461.929 483.232L446.592 599.756C442.054 633.206 438.2 676.439 425.838 707.8C419.948 722.74 410.646 736.93 397.831 746.82C384.628 757.01 367.569 762.223 350.957 759.956C334.964 757.773 318.239 749.874 308.444 736.715C295.77 719.69 296.288 694.462 302.707 675.1C309.613 654.27 323.906 637.881 336.791 620.629C343.851 611.175 350.726 601.27 357.052 591.31C397.137 528.202 422.822 432.416 433.443 358.628C398.609 358.088 366.679 359.119 335.561 377.484C299.765 398.61 282.994 435.458 272.773 473.884L239.47 466.158C243.345 453.043 246.278 440.152 250.583 426.763C262.195 390.657 277.632 356.377 303.829 328.45C337.344 292.722 382.203 273.396 430.215 267.119C450.079 264.523 471.66 264.243 491.806 263.729Z"/><path fill="#3A5AE6" d="M612.116 271.787C653.994 267.662 702.772 282.179 731.19 313.77C749.888 334.556 761.149 362.707 760.294 390.517C758.897 435.912 738.236 477.043 695.36 495.694C684.635 500.582 671.336 502.735 663.527 510.059C647.39 525.192 648.182 544.447 647.513 564.667C623.537 563.97 599.04 564.783 574.971 564.124C573.492 538.416 576.615 512.112 589.291 489.25C598.565 472.525 612.028 462.171 628.296 452.777C643.911 444.023 662.96 439.358 677.698 429.368C686.282 423.55 693.394 410.865 694.592 400.497C698.614 365.692 666.97 338.109 634.407 334.718C611.456 332.369 590.597 335.111 572.041 349.732C548.052 368.633 545.305 394.05 541.916 422.333C519.947 421.371 492.896 422.051 470.595 422.003C476.48 384.393 479.167 347.455 505.486 317.78C532.14 287.728 573.334 274.715 612.116 271.787Z"/><path fill="#010003" d="M622.901 292.59C631.096 292.066 635.655 295.905 637.888 303.536C665.952 303.11 689.849 308.414 709.309 329.884C713.652 334.676 716.991 331.4 716.041 340.379C730.313 359.517 732.869 393.383 726.645 415.743C731.094 418.801 734.402 421.923 734.5 427.762C734.541 431.255 733.199 434.622 730.768 437.13C727.097 440.906 723.801 441.518 718.937 441.496C714.733 450.365 705.584 460.796 700.76 469.952C699.91 471.565 695.155 469.801 693.666 470.453C689.287 472.373 684.901 474.836 680.44 476.616C660.374 481.863 641.842 487.274 628.377 504.385C622.192 512.12 619.561 518.396 616.324 528.022C632.618 541.452 617.493 560.191 604.023 552.478C600.663 550.521 598.242 547.285 597.311 543.511C594.984 534.331 601.36 528.854 609.616 526.882C609.845 525.931 610.093 524.985 610.362 524.044C616.992 500.882 635.021 483.799 657.462 476.185C671.375 471.464 678.483 470.766 691.661 463.523L693.616 459.91C695.225 459.455 697.081 459.114 698.74 458.771C701.023 456.374 703.202 453.412 705.249 450.769C708.058 446.569 710.513 442.837 713.08 438.454C705.351 428.968 706.853 416.878 720.16 414.806C724.471 392.876 724.257 368.79 713.795 348.479C712.424 346.226 711.254 342.957 708.299 342.573C704.623 342.096 704.761 337.878 704.643 335.157C703.834 334.243 702.992 333.359 702.118 332.506C683.145 313.63 663.268 310.426 637.702 310.466C635.79 314.003 634.074 316.368 630.333 318.209C626.894 319.917 622.897 320.105 619.313 318.728C615.063 317.073 613.12 314.285 611.356 310.349C592.667 309.857 575.098 309.897 557.842 318.258C548.523 322.774 537.85 329.061 534.191 339.138C524.842 345.673 520.713 364.308 518.082 375.07L518.731 375.581C534.515 387.832 518.911 406.22 505.518 398.767C502.458 397.043 500.245 394.132 499.405 390.721C497.086 381.546 503.006 375.408 511.676 373.896C513.312 364.912 515.103 356.825 518.747 348.325C520.116 345.129 522.475 342.704 523.726 339.683C524.821 337.04 522.621 334.709 524.665 331.847C526.359 329.476 528.521 329.387 531.328 328.896C558.831 302.73 576.895 304.868 610.985 302.734C613.811 296.39 615.781 294.092 622.901 292.59Z"/><path fill="#F8F9F4" d="M623.386 294.184C630.032 293.619 635.866 298.573 636.385 305.222C636.904 311.871 631.91 317.671 625.257 318.145C618.669 318.613 612.938 313.678 612.424 307.093C611.91 300.509 616.805 294.743 623.386 294.184Z"/><path fill="#F8F9F4" d="M608.388 528.923C614.857 527.955 620.878 532.436 621.808 538.91C622.739 545.385 618.222 551.38 611.742 552.272C605.316 553.157 599.382 548.686 598.459 542.265C597.537 535.844 601.973 529.884 608.388 528.923Z"/><path fill="#F8F9F4" d="M510.378 375.721C516.792 374.789 522.737 379.264 523.615 385.686C524.494 392.108 519.969 398.015 513.54 398.839C507.187 399.654 501.364 395.195 500.496 388.848C499.628 382.502 504.039 376.643 510.378 375.721Z"/><path fill="#F8F9F4" d="M718.191 416.899C724.355 415.145 730.779 418.698 732.569 424.852C734.358 431.006 730.841 437.45 724.697 439.275C718.504 441.113 711.997 437.562 710.193 431.358C708.389 425.155 711.977 418.668 718.191 416.899Z"/><path fill="#F8F9F4" d="M691.323 465.456C692.344 466.668 692.29 466.577 692.763 468.092C690.193 473.463 663.028 479.78 656.235 482.428C650.097 484.774 644.33 487.993 639.111 491.985C630.334 498.836 622.726 507.182 618.567 517.606C617.504 520.27 615.372 526.756 613.499 528.183C612.319 527.592 612.315 527.668 611.47 526.681C611.416 525.189 611.442 524.079 611.982 522.651C619.689 501.433 636.58 484.355 658.242 477.454C670.388 473.585 679.75 471.607 691.323 465.456Z"/><path fill="#F8F9F4" d="M598.204 304.715C600.461 304.54 609.144 304.001 610.77 304.873C610.961 305.56 611.27 308.653 610.124 308.679C603.244 308.833 596.377 308.61 589.501 308.978C570.811 309.98 555.341 315.723 540.84 327.555L539.648 328.7C537.744 330.512 536.634 332.109 534.133 332.048L533.251 330.903C533.543 326.703 539.661 323.347 542.872 320.872C559.48 308.074 578.098 305.68 598.204 304.715Z"/><path fill="#F8F9F4" d="M638.111 305.053C650.679 304.996 662.881 305.534 675.74 309.636C685.897 312.876 700.774 321.624 707.564 330.821C708.011 331.426 707.424 332.202 707.109 332.977C706.502 333.142 705.894 333.306 705.287 333.471C702.378 330.438 696.209 325.136 693.223 323.028C680.639 314.144 667.956 310.399 652.75 309.477C647.942 309.186 643.2 309.256 638.442 308.855C637.799 307.407 638.054 306.764 638.111 305.053Z"/><path fill="#F8F9F4" d="M713.852 341.659C716.375 342.14 719.178 347.271 720.25 349.5C728.154 365.937 731.303 398.272 725.226 415.347C724.305 415.154 723.463 414.947 722.548 414.725C721.859 413.397 723.402 401.448 723.668 398.996C725.166 385.204 723.952 371.662 719.75 358.416C718.459 354.346 715.293 349.409 713.779 345.279C713.004 343.165 713.001 343.729 713.852 341.659Z"/><path fill="#F8F9F4" d="M525.537 340.192C529.859 341.885 528.362 342.277 526.533 345.767C522.538 353.387 519.235 361.798 517.567 370.254L516.663 374.684C512.645 373.934 513.212 373.61 513.889 369.746C515.841 358.618 519.256 349.52 525.537 340.192Z"/><path fill="#F8F9F4" d="M714.137 439.235C715.332 439.989 716.611 440.562 717.819 441.291C712.721 449.331 709.816 454.127 703.391 461.373C702.167 461.432 701.191 460.764 700.541 459.653C700.337 459.304 701.452 458.124 701.547 458.003C706.146 452.163 710.621 445.797 714.137 439.235Z"/><path fill="#F8F9F4" d="M709.687 333.329C711.955 332.901 714.16 334.327 714.699 336.571C715.238 338.815 713.921 341.087 711.706 341.735C710.173 342.184 708.519 341.752 707.401 340.612C706.283 339.472 705.883 337.809 706.362 336.285C706.84 334.762 708.118 333.626 709.687 333.329Z"/><path fill="#F8F9F4" d="M696.411 460.72C698.62 460.067 700.952 461.264 701.71 463.439C702.468 465.614 701.385 468.001 699.249 468.862C697.773 469.457 696.09 469.191 694.868 468.171C693.647 467.151 693.086 465.542 693.409 463.984C693.731 462.426 694.885 461.172 696.411 460.72Z"/><path fill="#F8F9F4" d="M528.113 331.447C530.38 330.701 532.82 331.945 533.549 334.217C534.278 336.489 533.018 338.92 530.741 339.634C528.486 340.34 526.084 339.095 525.362 336.845C524.64 334.595 525.868 332.184 528.113 331.447Z"/><path fill="#3A5AE6" d="M600.817 592.681C623.311 589.657 643.99 605.462 646.979 627.961C649.967 650.461 634.131 671.115 611.627 674.069C589.172 677.016 568.572 661.222 565.59 638.772C562.608 616.321 578.371 595.697 600.817 592.681Z"/><path fill="#F8F9F4" d="M672.717 365.669L684.254 366.005C698.519 387.876 696.853 414.36 674.347 429.764C670.832 432.05 664.857 435.169 660.881 436.376C662.245 428.675 671.582 367.085 672.717 365.669Z"/></svg>